# xmcd
#
# Track frame offsets:
#	150
#	16377
#	32458
#	52506
#	69651
#	86146
#	103855
#	121324
#	136353
#	155809
#	173827
#	190946
#	211743
#	232359
#	245476
#	258176
#	276173
#	292510
#	309359
#	326955
#
# Disc length: 4578 seconds
#
# Revision: 11
# Processed by: cddbd v1.5.2PL0 Copyright (c) Steve Scherf et al.
# Submitted via: audiograbber 1.83.01
#
DISCID=1b11e014
DTITLE=LeAnn Rimes - The Best Of LeAnn Rimes
DYEAR=2004
DGENRE=Country
TTITLE0=Can't Fight The Moonlight
TTITLE1=Life Goes On
TTITLE2=How Do I Live
TTITLE3=I Need You
TTITLE4=We Can
TTITLE5=Last Thing On My Mind (with Ronan Keating)
TTITLE6=This Love
TTITLE7=But I Do Love You
TTITLE8=Written In The Stars (with Elton John)
TTITLE9=Suddenly
TTITLE10=The Right Kind Of Wrong
TTITLE11=Commitment
TTITLE12=Please Remember
TTITLE13=Crazy
TTITLE14=Blue
TTITLE15=Looking Through Your Eyes
TTITLE16=You Light Up My Life
TTITLE17=One Way Ticket (Because I Can)
TTITLE18=How Do I Live (Mr Mig Dance Radio Edit)
TTITLE19=Can't Fight The Moonlight (Latino Mix)
EXTD=YEAR: 2004 ID3G: 13
EXTT0=
EXTT1=
EXTT2=
EXTT3=
EXTT4=
EXTT5=
EXTT6=
EXTT7=
EXTT8=
EXTT9=
EXTT10=
EXTT11=
EXTT12=
EXTT13=
EXTT14=
EXTT15=
EXTT16=
EXTT17=
EXTT18=
EXTT19=
PLAYORDER=
